<svg t="1685021794406" class="icon" viewBox="0 0 1024 1024" version="1.1" xmlns="http://www.w3.org/2000/svg" p-id="1292" width="200" height="200"><path d="M301.710222 548.636444h173.710222v173.710223c0 5.034667 4.124444 9.130667 9.130667 9.130666h54.869333a9.159111 9.159111 0 0 0 9.130667-9.130666v-173.710223h173.738667a9.159111 9.159111 0 0 0 9.130666-9.159111v-54.840889a9.159111 9.159111 0 0 0-9.130666-9.159111h-173.738667V301.795556a9.159111 9.159111 0 0 0-9.130667-9.130667h-54.869333a9.159111 9.159111 0 0 0-9.130667 9.130667v173.710222h-173.710222a9.159111 9.159111 0 0 0-9.159111 9.159111v54.840889c0 5.034667 4.124444 9.159111 9.159111 9.159111z" p-id="1293"></path><path d="M932.579556 54.897778H91.448889c-20.224 0-36.579556 16.327111-36.579556 36.551111v841.130667c0 20.252444 16.355556 36.579556 36.579556 36.579555h841.130667c20.252444 0 36.579556-16.355556 36.579555-36.579555V91.448889c0-20.224-16.355556-36.579556-36.579555-36.579556zM886.897778 886.897778H137.159111V137.130667H886.897778V886.897778z" p-id="1294"></path></svg>